<?xml version="1.0" encoding="utf-8"?>
<!-- Generator: Adobe Illustrator 23.0.5, SVG Export Plug-In . SVG Version: 6.00 Build 0)  -->
<svg version="1.1" id="Layer_1" xmlns="http://www.w3.org/2000/svg" xmlns:xlink="http://www.w3.org/1999/xlink" x="0px" y="0px"
	 viewBox="0 0 130 130" style="enable-background:new 0 0 130 130;" xml:space="preserve">
<style type="text/css">
	.st0{fill:#FFFFFF;}
	.st1{fill:#FBA826;}
	.st2{fill:#B4E5EA;}
	.st3{fill:#E8E8E8;}
	.st4{fill:#E09721;}
	.st5{fill:#60B0C5;}
	.st6{fill:#4094A8;}
	.st7{fill:#203447;}
</style>
<g>
	<rect x="48.71" y="108.31" class="st0" width="33.48" height="7.88"/>
	<rect x="35.91" y="119.15" class="st1" width="54.15" height="6.89"/>
	<rect x="4.4" y="91.58" class="st2" width="85.66" height="14.77"/>
	<path class="st1" d="M4.4,25.61h122.09V8.99c0-3.33-2.62-6.03-5.85-6.03H10.25c-3.23,0-5.85,2.7-5.85,6.03V25.61z"/>
	<rect x="4.4" y="25.61" class="st0" width="122.09" height="64.98"/>
	<path class="st3" d="M8.39,26.59h5.86c-2.2,0-3.99,1.44-3.99,3.23v56.56c0,1.78,1.79,3.23,3.99,3.23H8.39
		c-3.99,0-3.99-0.95-3.99-3.23V29.82C4.4,28.04,6.18,26.59,8.39,26.59z"/>
	<path class="st4" d="M8.39,4.93h5.86c-2.2,0-3.99,2.37-3.99,5.3v14.61H4.4V10.23C4.4,7.3,6.18,4.93,8.39,4.93z"/>
	<path class="st4" d="M44.77,118.16c0,0-3.94,0.98-3.94,3.94c0,2.95,0,4.92,0,4.92h-4.92v-6.05c0-1.55,1.26-2.81,2.81-2.81H44.77z"
		/>
	<path class="st5" d="M8.39,105.58h5.86c-2.2,0-3.99-1.79-3.99-3.99v-11H4.4v11C4.4,103.79,6.18,105.58,8.39,105.58z"/>
	<rect x="48.71" y="108.31" class="st3" width="4.92" height="7.88"/>
	<rect x="90.06" y="68.93" class="st0" width="36.43" height="58.09"/>
	<rect x="91.05" y="118.16" class="st5" width="35.45" height="8.86"/>
	<rect x="91.05" y="58.1" class="st5" width="35.45" height="8.86"/>
	<path class="st6" d="M98.92,58.1c0,0-3.5,0.98-3.5,3.94c0,2.95,0,4.92,0,4.92h-4.38v-6.05c0-1.55,1.12-2.81,2.5-2.81H98.92z"/>
	<path class="st6" d="M98.92,126.04c0,0-3.5-0.88-3.5-3.5s0-4.38,0-4.38h-4.38v5.38c0,1.38,1.12,2.5,2.5,2.5H98.92z"/>
	<g>
		<path class="st7" d="M115.46,78.12h6.32c1.04,0,1.87-0.84,1.87-1.87c0-1.04-0.84-1.87-1.87-1.87h-6.32
			c-1.03,0-1.87,0.84-1.87,1.87C113.59,77.28,114.42,78.12,115.46,78.12z"/>
		<path class="st7" d="M121.78,82.8h-3.47c-1.03,0-1.87,0.84-1.87,1.87c0,1.04,0.84,1.87,1.87,1.87h3.47c1.04,0,1.87-0.84,1.87-1.87
			C123.66,83.64,122.82,82.8,121.78,82.8z"/>
		<path class="st7" d="M121.78,90.55h-2.39c-1.03,0-1.87,0.84-1.87,1.87c0,1.03,0.84,1.87,1.87,1.87h2.39
			c1.04,0,1.87-0.84,1.87-1.87C123.66,91.39,122.82,90.55,121.78,90.55z"/>
		<g>
			<path class="st7" d="M12.77,38.36h5.33c1.03,0,1.87-0.84,1.87-1.87c0-1.04-0.84-1.87-1.87-1.87h-5.33
				c-1.04,0-1.87,0.84-1.87,1.87C10.9,37.53,11.74,38.36,12.77,38.36z"/>
			<path class="st7" d="M56.6,34.62H24.08c-1.03,0-1.87,0.84-1.87,1.87c0,1.03,0.84,1.87,1.87,1.87H56.6c1.04,0,1.87-0.84,1.87-1.87
				C58.48,35.46,57.64,34.62,56.6,34.62z"/>
			<path class="st7" d="M51.66,44.11H39.77c-1.04,0-1.87,0.84-1.87,1.87s0.84,1.87,1.87,1.87h11.89c1.03,0,1.87-0.84,1.87-1.87
				S52.7,44.11,51.66,44.11z"/>
			<path class="st7" d="M33.55,44.11h-3.71c-1.03,0-1.87,0.84-1.87,1.87s0.84,1.87,1.87,1.87h3.71c1.04,0,1.87-0.84,1.87-1.87
				S34.58,44.11,33.55,44.11z"/>
			<path class="st7" d="M23.87,44.11h-11.1c-1.04,0-1.87,0.84-1.87,1.87s0.84,1.87,1.87,1.87h11.1c1.03,0,1.87-0.84,1.87-1.87
				S24.91,44.11,23.87,44.11z"/>
			<path class="st7" d="M9.61,14.1c0,3.03,2.47,5.5,5.5,5.5s5.5-2.47,5.5-5.5s-2.47-5.5-5.5-5.5S9.61,11.07,9.61,14.1z M16.86,14.1
				c0,0.97-0.79,1.75-1.75,1.75c-0.97,0-1.75-0.79-1.75-1.75c0-0.97,0.79-1.75,1.75-1.75C16.07,12.35,16.86,13.14,16.86,14.1z"/>
			<path class="st7" d="M23.61,14.1c0,3.03,2.47,5.5,5.5,5.5s5.5-2.47,5.5-5.5s-2.47-5.5-5.5-5.5S23.61,11.07,23.61,14.1z
				 M30.86,14.1c0,0.97-0.79,1.75-1.75,1.75c-0.97,0-1.75-0.79-1.75-1.75c0-0.97,0.79-1.75,1.75-1.75
				C30.07,12.35,30.86,13.14,30.86,14.1z"/>
			<path class="st7" d="M37.61,14.1c0,3.03,2.47,5.5,5.5,5.5c3.03,0,5.5-2.47,5.5-5.5s-2.47-5.5-5.5-5.5
				C40.07,8.6,37.61,11.07,37.61,14.1z M44.85,14.1c0,0.97-0.79,1.75-1.75,1.75c-0.97,0-1.75-0.79-1.75-1.75
				c0-0.97,0.79-1.75,1.75-1.75C44.07,12.35,44.85,13.14,44.85,14.1z"/>
			<path class="st7" d="M105.42,124.61h6.25c1.03,0,1.87-0.84,1.87-1.87c0-1.04-0.84-1.87-1.87-1.87h-6.25
				c-1.04,0-1.87,0.84-1.87,1.87C103.55,123.77,104.39,124.61,105.42,124.61z"/>
			<path class="st7" d="M104.88,59.88h-2.16c-1.03,0-1.87,0.84-1.87,1.87c0,1.04,0.84,1.87,1.87,1.87h2.16
				c1.04,0,1.87-0.84,1.87-1.87C106.75,60.72,105.91,59.88,104.88,59.88z"/>
			<path class="st7" d="M114.38,59.88h-4.24c-1.03,0-1.87,0.84-1.87,1.87c0,1.04,0.84,1.87,1.87,1.87h4.24
				c1.03,0,1.87-0.84,1.87-1.87C116.25,60.72,115.41,59.88,114.38,59.88z"/>
			<path class="st7" d="M129.17,9.66c0-4.55-3.7-8.25-8.25-8.25h-15.99c-1.04,0-1.87,0.84-1.87,1.87c0,1.04,0.84,1.87,1.87,1.87
				h15.99c2.48,0,4.5,2.02,4.5,4.5v13.49H5.04V9.66c0-2.48,2.02-4.5,4.5-4.5h83.74c1.04,0,1.87-0.84,1.87-1.87
				c0-1.03-0.84-1.87-1.87-1.87H9.53c-4.55,0-8.25,3.7-8.25,8.25v90.66c0,4.55,3.7,8.25,8.25,8.25h36.46v6.72h-5.66
				c-3.77,0-6.84,3.07-6.84,6.84v4.05c0,1.72,1.4,3.12,3.12,3.12l86.84,0.11c3.23,0,5.86-2.63,5.86-5.86v-5.93L129.17,9.66z
				 M9.53,104.81c-2.48,0-4.5-2.02-4.5-4.5v-7.11h82.75v11.61H9.53z M84.46,108.56h3.32v6.72h-3.32V108.56z M80.72,108.56v6.72
				H49.74v-6.72H80.72z M37.24,125.55v-3.42c0-1.71,1.39-3.1,3.1-3.1h47.45v4.52c0,0.7,0.12,1.37,0.35,2H37.24z M125.56,123.55
				c0,1.17-0.95,2.11-2.11,2.11H93.64c-1.17,0-2.11-0.95-2.11-2.11v-4.05h34.03V123.55z M125.56,115.75H91.53V83.16
				c0-0.93-0.64-1.8-1.56-1.95c-1.17-0.19-2.19,0.71-2.19,1.85v6.4H7.92c-1.59,0-2.89-1.29-2.89-2.89V29.31
				c0-1.33,1.08-2.41,2.41-2.41h117.98v28.67c-0.62-0.22-1.28-0.34-1.97-0.34H93.64c-3.24,0-5.86,2.62-5.86,5.86v10.47
				c0,0.93,0.64,1.8,1.56,1.95c1.17,0.19,2.19-0.71,2.19-1.85v-2.77h34.03V115.75z M125.56,65.14H91.53v-4.06
				c0-1.16,0.95-2.11,2.11-2.11h29.81c1.17,0,2.11,0.95,2.11,2.11L125.56,65.14L125.56,65.14z"/>
			<path class="st7" d="M95.31,78.12h6.91c1.03,0,1.87-0.84,1.87-1.87c0-1.04-0.84-1.87-1.87-1.87h-6.91
				c-1.04,0-1.87,0.84-1.87,1.87C93.44,77.28,94.28,78.12,95.31,78.12z"/>
			<path class="st7" d="M107.59,78.12h2.95c1.03,0,1.87-0.84,1.87-1.87c0-1.04-0.84-1.87-1.87-1.87h-2.95
				c-1.03,0-1.87,0.84-1.87,1.87C105.71,77.28,106.55,78.12,107.59,78.12z"/>
			<path class="st7" d="M95.31,86.55h3.07c1.04,0,1.87-0.84,1.87-1.87c0-1.03-0.84-1.87-1.87-1.87h-3.07
				c-1.04,0-1.87,0.84-1.87,1.87C93.44,85.71,94.28,86.55,95.31,86.55z"/>
			<path class="st7" d="M114.23,84.67c0-1.03-0.84-1.87-1.87-1.87h-8.8c-1.03,0-1.87,0.84-1.87,1.87c0,1.04,0.84,1.87,1.87,1.87h8.8
				C113.39,86.55,114.23,85.71,114.23,84.67z"/>
			<path class="st7" d="M95.31,94.3h6.15c1.03,0,1.87-0.84,1.87-1.87c0-1.04-0.84-1.87-1.87-1.87h-6.15c-1.04,0-1.87,0.84-1.87,1.87
				C93.44,93.46,94.28,94.3,95.31,94.3z"/>
			<path class="st7" d="M106.59,94.3h7.78c1.03,0,1.87-0.84,1.87-1.87c0-1.04-0.84-1.87-1.87-1.87h-7.78
				c-1.04,0-1.87,0.84-1.87,1.87C104.72,93.46,105.56,94.3,106.59,94.3z"/>
			<path class="st7" d="M95.31,102.72h9.41c1.04,0,1.87-0.84,1.87-1.87c0-1.03-0.84-1.87-1.87-1.87h-9.41
				c-1.04,0-1.87,0.84-1.87,1.87C93.44,101.88,94.28,102.72,95.31,102.72z"/>
			<path class="st7" d="M112.58,98.98h-2.55c-1.03,0-1.87,0.84-1.87,1.87c0,1.04,0.84,1.87,1.87,1.87h2.55
				c1.03,0,1.87-0.84,1.87-1.87C114.45,99.81,113.62,98.98,112.58,98.98z"/>
		</g>
		<path class="st7" d="M121.78,98.98h-4.44c-1.03,0-1.87,0.84-1.87,1.87c0,1.04,0.84,1.87,1.87,1.87h4.44
			c1.04,0,1.87-0.84,1.87-1.87C123.66,99.81,122.82,98.98,121.78,98.98z"/>
	</g>
</g>
</svg>
