<?xml version="1.0" encoding="utf-8"?>
<!-- Generator: Adobe Illustrator 23.0.5, SVG Export Plug-In . SVG Version: 6.00 Build 0)  -->
<svg version="1.1" id="Layer_1" xmlns="http://www.w3.org/2000/svg" xmlns:xlink="http://www.w3.org/1999/xlink" x="0px" y="0px"
	 viewBox="0 0 130 130" style="enable-background:new 0 0 130 130;" xml:space="preserve">
<style type="text/css">
	.st0{fill:#FBA826;}
	.st1{fill:#FFFFFF;}
	.st2{fill:#E8E8E8;}
	.st3{fill:#B4E5EA;}
	.st4{fill:#60B0C5;}
	.st5{fill:#203447;}
	.st6{fill:#E09721;}
</style>
<g>
	<path class="st0" d="M90.11,105.93H25.5c-2.16,0-3.9-1.75-3.9-3.9v-4.46h71.08v5.79C92.68,104.78,91.53,105.93,90.11,105.93z"/>
	<path class="st0" d="M65.92,13.11H49.19V8.67c0-2.17,1.76-3.93,3.93-3.93h9.62c1.76,0,3.18,1.42,3.18,3.18V13.11z"/>
	<path class="st1" d="M109.21,97.57H5.9c-1.49,0-2.7-1.22-2.7-2.7V15.81c0-1.49,1.22-2.7,2.7-2.7h103.31c1.49,0,2.7,1.22,2.7,2.7
		v79.06C111.92,96.36,110.7,97.57,109.21,97.57z"/>
	<path class="st2" d="M7.94,13.94h6.97c-2.62,0-4.74,1.9-4.74,4.24v74.31c0,2.34,2.12,4.24,4.74,4.24H7.94
		c-2.62,0-4.74-1.9-4.74-4.24V18.18C3.2,15.84,5.32,13.94,7.94,13.94z"/>
	<rect x="28.29" y="70.81" class="st3" width="5.85" height="15.89"/>
	<rect x="62.58" y="70.81" class="st3" width="6.69" height="15.89"/>
	<circle class="st4" cx="99.79" cy="62.03" r="22.16"/>
	<circle class="st1" cx="99.79" cy="62.03" r="15.89"/>
	<path class="st1" d="M103.23,77.05c-8.11-0.73-14.47-7.54-14.47-15.84c0-6.29,3.65-11.72,8.96-14.3c-0.18-0.27-0.34-0.55-0.46-0.86
		c-6.81,2.12-11.75,8.47-11.75,15.97c0,9.24,7.49,16.73,16.73,16.73c0.38,0,0.75-0.03,1.12-0.05c0-0.01-0.01-0.02-0.01-0.04
		C103.18,78.14,103.16,77.59,103.23,77.05z"/>
	<path class="st0" d="M125.23,105.97L125.23,105.97c-2.04,1.18-4.68,0.47-5.86-1.57L107.3,83.51l7.43-4.29l12.06,20.89
		C127.98,102.16,127.27,104.79,125.23,105.97z"/>
	<rect x="45.01" y="61.61" class="st4" width="6.69" height="25.09"/>
	<g>
		<circle class="st0" cx="48.78" cy="42.79" r="3.35"/>
		<circle class="st0" cx="31.63" cy="52.41" r="3.35"/>
		<circle class="st0" cx="65.92" cy="52.41" r="3.35"/>
		<circle class="st0" cx="83.48" cy="28.16" r="3.35"/>
		<path class="st5" d="M83.18,34.37c3.34,0,6.06-2.72,6.06-6.06s-2.72-6.06-6.06-6.06c-3.34,0-6.06,2.72-6.06,6.06
			c0,1.32,0.42,2.58,1.22,3.64l0.1,0.13l-0.1,0.13L67.91,46.78l-0.15-0.05c-0.61-0.2-1.25-0.3-1.89-0.3c-1.53,0-3,0.58-4.13,1.63
			l-0.12,0.11l-0.14-0.08l-7.03-3.99l0.03-0.16c0.09-0.42,0.14-0.85,0.14-1.27c0-3.34-2.72-6.06-6.06-6.06
			c-3.34,0-6.06,2.72-6.06,6.06c0,0.43,0.05,0.86,0.14,1.28l0.03,0.16l-7.17,4.07l-0.12-0.11c-1.13-1.05-2.59-1.63-4.13-1.63
			c-3.34,0-6.06,2.72-6.06,6.06c0,3.34,2.72,6.06,6.06,6.06c3.34,0,6.06-2.72,6.06-6.06c0-0.43-0.05-0.86-0.14-1.28l-0.03-0.16
			l7.17-4.07l0.12,0.11c1.13,1.05,2.59,1.63,4.13,1.63c1.53,0,3-0.58,4.13-1.63l0.12-0.11l0.14,0.08l7.03,3.99l-0.03,0.16
			c-0.09,0.42-0.14,0.85-0.14,1.27c0,3.34,2.72,6.06,6.06,6.06c3.34,0,6.06-2.72,6.06-6.06c0-1.32-0.42-2.58-1.22-3.64l-0.1-0.13
			l0.1-0.13l10.42-14.57l0.15,0.05C81.9,34.27,82.54,34.37,83.18,34.37z M31.25,55.23c-1.51,0-2.74-1.23-2.74-2.74
			c0-1.51,1.23-2.74,2.74-2.74c1.51,0,2.74,1.23,2.74,2.74C33.99,54,32.76,55.23,31.25,55.23z M48.56,45.4
			c-1.51,0-2.74-1.23-2.74-2.74c0-1.51,1.23-2.74,2.74-2.74c1.51,0,2.74,1.23,2.74,2.74C51.3,44.17,50.07,45.4,48.56,45.4z
			 M65.87,55.23c-1.51,0-2.74-1.23-2.74-2.74c0-1.51,1.23-2.74,2.74-2.74c1.51,0,2.74,1.23,2.74,2.74
			C68.61,54,67.38,55.23,65.87,55.23z M80.44,28.31c0-0.73,0.28-1.42,0.8-1.93c0.52-0.52,1.2-0.8,1.93-0.8
			c1.51,0,2.74,1.23,2.74,2.74s-1.23,2.74-2.74,2.74C81.67,31.04,80.44,29.82,80.44,28.31z"/>
		<path class="st6" d="M51.44,6.02h3.29c-1.24,0-2.24,0.8-2.24,1.78v4.91h-3.29V7.8C49.19,6.82,50.2,6.02,51.44,6.02z"/>
		<path class="st5" d="M106.36,96.15H6.39c-0.98,0-1.78-0.8-1.78-1.78v-77.8c0-0.98,0.8-1.78,1.78-1.78h8.89
			c0.92,0,1.66-0.75,1.66-1.66c0-0.92-0.75-1.66-1.66-1.66H6.39c-2.82,0-5.11,2.29-5.11,5.11v77.8c0,2.82,2.29,5.11,5.11,5.11h13.22
			v4.37c0,2.24,1.82,4.07,4.07,4.07h19.24l-9.05,17.67c-0.2,0.39-0.24,0.85-0.1,1.27c0.14,0.42,0.43,0.77,0.82,0.97
			c0.24,0.12,0.49,0.18,0.76,0.18c0.63,0,1.2-0.35,1.48-0.91l9.83-19.19h21.12l0.06,0.12l9.77,19.07c0.29,0.56,0.85,0.91,1.48,0.91
			c0.26,0,0.52-0.06,0.76-0.18c0.4-0.2,0.69-0.55,0.83-0.97c0.14-0.42,0.1-0.87-0.1-1.27l-9.05-17.67h19.24
			c2.24,0,4.07-1.82,4.07-4.07v-4.37h11.53c0.92,0,1.66-0.75,1.66-1.66C108.02,96.89,107.27,96.15,106.36,96.15z M91.5,103.85
			c0,0.41-0.33,0.74-0.74,0.74H23.68c-0.41,0-0.74-0.33-0.74-0.74v-4.37H91.5V103.85z"/>
		<path class="st5" d="M22.82,14.77h85.23c0.98,0,1.78,0.8,1.78,1.78v17.93c0,0.92,0.75,1.66,1.66,1.66c0.92,0,1.66-0.75,1.66-1.66
			V16.56c0-2.82-2.29-5.11-5.11-5.11H67.46V7.52c0-2.49-2.02-4.51-4.51-4.51H51.48c-2.49,0-4.51,2.02-4.51,4.51v3.93H22.82
			c-0.92,0-1.66,0.75-1.66,1.66C21.16,14.03,21.9,14.77,22.82,14.77z M51.48,6.34h11.47c0.65,0,1.18,0.53,1.18,1.18v3.93H50.3
			l0-3.93C50.3,6.87,50.83,6.34,51.48,6.34z"/>
		<path class="st5" d="M35.08,68.64h-7.65c-0.92,0-1.66,0.75-1.66,1.66v16.66c0,0.92,0.75,1.66,1.66,1.66h7.65
			c0.92,0,1.66-0.75,1.66-1.66V70.3C36.74,69.39,36,68.64,35.08,68.64z M33.42,85.3h-4.32V71.97h4.32V85.3z"/>
		<path class="st5" d="M52.39,59h-7.65c-0.92,0-1.66,0.75-1.66,1.66v26.3c0,0.92,0.75,1.66,1.66,1.66h7.65
			c0.92,0,1.66-0.75,1.66-1.66v-26.3C54.05,59.75,53.31,59,52.39,59z M50.72,85.3H46.4V62.33h4.32V85.3z"/>
		<path class="st5" d="M69.7,68.64h-7.65c-0.92,0-1.66,0.75-1.66,1.66v16.66c0,0.92,0.75,1.66,1.66,1.66h7.65
			c0.92,0,1.66-0.75,1.66-1.66V70.3C71.36,69.39,70.61,68.64,69.7,68.64z M68.03,85.3h-4.32V71.97h4.32V85.3z"/>
		<path class="st5" d="M87.01,85.3h-5.99v-3.87c0-0.92-0.75-1.66-1.66-1.66c-0.92,0-1.66,0.75-1.66,1.66v5.54
			c0,0.92,0.75,1.66,1.66,1.66h7.65c0.92,0,1.66-0.75,1.66-1.66S87.92,85.3,87.01,85.3z"/>
		<path class="st5" d="M122.63,108.23c1.21,0,2.41-0.32,3.46-0.93c2.14-1.24,3.48-3.54,3.48-6.02c0-1.21-0.32-2.41-0.93-3.47
			l-10.9-18.88l0.11-0.12c2.72-2.9,4.71-6.49,5.75-10.38c1.69-6.3,0.82-12.88-2.44-18.54c-3.26-5.64-8.53-9.68-14.84-11.37
			c-6.31-1.69-12.89-0.83-18.53,2.43c-11.66,6.73-15.67,21.7-8.94,33.37c3.26,5.65,8.53,9.69,14.83,11.38
			c3.89,1.04,7.99,1.11,11.86,0.21l0.16-0.04l0.08,0.14l10.82,18.74C117.84,106.9,120.15,108.23,122.63,108.23z M100.04,83.22
			c-1.84,0-3.69-0.25-5.49-0.73c-5.44-1.46-9.99-4.95-12.81-9.83c-5.82-10.07-2.35-23,7.72-28.82c3.2-1.85,6.83-2.82,10.51-2.82
			c7.54,0,14.55,4.04,18.31,10.55c2.82,4.88,3.57,10.57,2.11,16.01c-1.46,5.44-4.95,9.99-9.83,12.81
			C107.34,82.23,103.71,83.22,100.04,83.22z M109.19,84.75c1.04-0.43,2.06-0.92,3.03-1.48c0.96-0.55,1.9-1.19,2.8-1.89l0.2-0.16
			l10.54,18.25c0.32,0.55,0.49,1.18,0.49,1.81c0,1.29-0.69,2.49-1.81,3.14c-0.55,0.32-1.17,0.48-1.8,0.48
			c-1.29,0-2.5-0.69-3.14-1.81l-10.53-18.25L109.19,84.75z"/>
		<path class="st5" d="M116.89,67.36c1.31-4.24,1-8.77-0.88-12.77c-0.19-0.4-0.52-0.71-0.94-0.86c-0.42-0.15-0.87-0.13-1.27,0.06
			c-0.4,0.19-0.71,0.52-0.86,0.94c-0.15,0.42-0.13,0.87,0.06,1.27c1.53,3.24,1.78,6.92,0.71,10.36c-1.07,3.46-3.39,6.36-6.53,8.17
			c-3.32,1.92-7.19,2.43-10.89,1.43c-3.7-0.99-6.8-3.37-8.72-6.69c-1.91-3.32-2.42-7.18-1.43-10.89c0.99-3.71,3.37-6.8,6.68-8.72
			c5.01-2.89,11.23-2.51,15.85,0.98c0.35,0.27,0.79,0.38,1.23,0.32c0.44-0.06,0.83-0.29,1.1-0.64c0.55-0.73,0.41-1.78-0.32-2.33
			c-3.1-2.35-6.79-3.59-10.67-3.59c-3.1,0-6.15,0.82-8.85,2.38c-4.09,2.36-7.02,6.17-8.24,10.74c-1.22,4.56-0.6,9.33,1.77,13.42
			c2.36,4.09,6.17,7.02,10.74,8.24c1.51,0.41,3.06,0.61,4.61,0.61c3.07,0,6.12-0.82,8.81-2.38
			C112.71,75.19,115.57,71.62,116.89,67.36z"/>
	</g>
</g>
</svg>
