<?xml version="1.0" encoding="utf-8"?>
<!-- Generator: Adobe Illustrator 23.0.5, SVG Export Plug-In . SVG Version: 6.00 Build 0)  -->
<svg version="1.1" id="Layer_1" xmlns="http://www.w3.org/2000/svg" xmlns:xlink="http://www.w3.org/1999/xlink" x="0px" y="0px"
	 viewBox="0 0 130 130" style="enable-background:new 0 0 130 130;" xml:space="preserve">
<style type="text/css">
	.st0{fill:#FFFFFF;}
	.st1{fill:#B4E5EA;}
	.st2{fill:#FBA826;}
	.st3{fill:#60B0C5;}
	.st4{fill:#E09721;}
	.st5{fill:#E8E8E8;}
	.st6{fill:#203447;}
</style>
<g>
	<path class="st0" d="M86.68,60.04H20.6c-1.56,0-2.83-1.27-2.83-2.83V16.2c0-1.56,1.27-2.83,2.83-2.83h66.08
		c1.56,0,2.83,1.27,2.83,2.83v41.01C89.51,58.77,88.24,60.04,86.68,60.04z"/>
	<path class="st1" d="M121.65,45.35H71.2c-3.24,0-5.89-2.65-5.89-5.89V9.76c0-3.24,2.65-5.89,5.89-5.89h50.44
		c3.24,0,5.89,2.65,5.89,5.89v29.7C127.54,42.7,124.89,45.35,121.65,45.35z"/>
	<polygon class="st0" points="88.2,35.39 88.22,24.59 88.25,13.78 97.59,19.2 106.94,24.62 97.57,30.01 	"/>
	<rect x="20.37" y="109.3" class="st2" width="7.78" height="17.29"/>
	<path class="st3" d="M69.49,3.86h3.6c-1.35,0-2.45,0.95-2.45,2.13v37.24c0,1.17,1.1,2.13,2.45,2.13h-3.6
		c-1.35,0-2.45-0.95-2.45-2.13V5.99C67.04,4.81,68.14,3.86,69.49,3.86z"/>
	<rect x="20.37" y="109.3" class="st4" width="3.46" height="17.29"/>
	<polygon class="st0" points="25.55,58.31 25.55,68.68 26.42,70.41 38.52,58.31 	"/>
	<path class="st2" d="M29.87,108.44H15.81c-6.05,0-11-4.95-11-11v-0.47c0-6.05,4.95-11,11-11h14.06V108.44z"/>
	<path class="st4" d="M6.54,103.25V99.8c0-5.23,4.28-9.51,9.51-9.51h13.83v-4.32H14.32c-5.23,0-9.51,4.28-9.51,9.51v3.46
		c0,2.07,0.68,3.99,1.82,5.56C6.58,104.09,6.54,103.67,6.54,103.25z"/>
	<path class="st5" d="M20.92,15.1h4.63c-1.74,0-3.15,1.01-3.15,2.26v39.56c0,1.25,1.41,2.26,3.15,2.26h-4.63
		c-1.74,0-3.15-1.01-3.15-2.26V17.36C17.77,16.11,19.18,15.1,20.92,15.1z"/>
	<polygon class="st1" points="29.87,85.1 73.09,67.82 73.09,126.59 29.87,109.3 	"/>
	<rect x="30.74" y="84.24" class="st3" width="4.32" height="25.93"/>
	<polygon class="st5" points="88.2,16.73 88.28,33.21 92.97,31.52 92.97,17.69 	"/>
	<polygon class="st3" points="29.87,91.15 73.09,73.87 73.09,68.3 29.87,85.1 	"/>
	<path class="st2" d="M73.95,89.43v17.29C73.95,106.71,92.97,95.48,73.95,89.43z"/>
	<polygon class="st4" points="73.95,89.43 74.1,105.81 77.41,104.12 77.41,89.43 	"/>
	<g>
		<path class="st6" d="M63.58,110.06c-0.32-0.32-0.76-0.5-1.21-0.5c-0.45,0-0.89,0.18-1.21,0.5c-0.32,0.32-0.5,0.76-0.5,1.21
			c0,0.45,0.18,0.89,0.5,1.21c0.3,0.3,0.74,0.48,1.21,0.48c0,0,0,0,0,0c0.47,0,0.91-0.17,1.21-0.47c0.32-0.32,0.5-0.76,0.5-1.21
			C64.08,110.82,63.89,110.37,63.58,110.06z"/>
		<path class="st6" d="M84.27,97.24c0-4.9-3.47-9.24-8.24-10.33l-0.64-0.15V67.49c0-0.57-0.28-1.1-0.75-1.42
			c-0.47-0.32-1.07-0.38-1.6-0.17L29.22,83.53H15.05c-7.57,0-13.72,6.16-13.72,13.72s6.16,13.72,13.72,13.72h2.49V127
			c0,0.94,0.77,1.71,1.71,1.71h10.34c0.94,0,1.71-0.77,1.71-1.71v-15.2l41.74,16.79c0.52,0.21,1.13,0.14,1.6-0.17
			c0.47-0.32,0.75-0.85,0.75-1.42v-19.29l0.64-0.15C80.81,106.48,84.27,102.14,84.27,97.24z M27.88,125.29h-6.92v-14.32h6.92V125.29
			z M27.88,107.55H15.05c-5.68,0-10.3-4.62-10.3-10.3s4.62-10.3,10.3-10.3h12.83L27.88,107.55z M71.97,124.47L31.3,108.11V86.4
			l29.35-11.82v26.34c0,0.94,0.77,1.71,1.71,1.71c0.94,0,1.71-0.77,1.71-1.71V73.2l7.89-3.18V124.47z M75.39,90.17l1.15,0.5
			c2.62,1.14,4.31,3.72,4.31,6.57s-1.69,5.43-4.31,6.57l-1.15,0.5V90.17z"/>
		<path class="st6" d="M109.25,95.61H94.91c-0.94,0-1.71,0.77-1.71,1.71c0,0.94,0.77,1.71,1.71,1.71h14.34
			c0.94,0,1.71-0.77,1.71-1.71C110.96,96.37,110.19,95.61,109.25,95.61z"/>
		<path class="st6" d="M89.04,82.97c0,0.46,0.18,0.89,0.5,1.21c0.31,0.31,0.75,0.48,1.21,0.48h0c0.46,0,0.9-0.18,1.21-0.48
			l4.95-4.95c0.67-0.67,0.67-1.75,0-2.42c-0.32-0.32-0.75-0.5-1.21-0.5c-0.46,0-0.89,0.18-1.21,0.5l-4.94,4.95
			C89.22,82.08,89.04,82.51,89.04,82.97z"/>
		<path class="st6" d="M97.1,115.17l-5.11-5.11c-0.32-0.32-0.75-0.5-1.21-0.5c-0.46,0-0.89,0.18-1.21,0.5
			c-0.32,0.32-0.5,0.75-0.5,1.21c0,0.46,0.18,0.89,0.5,1.21l5.11,5.11c0.61,0.61,1.81,0.61,2.42,0
			C97.76,116.92,97.76,115.83,97.1,115.17z"/>
		<path class="st6" d="M120.02,0.71h-47.1c-5.13,0-9.31,4.17-9.31,9.31v29.37c0,5.13,4.17,9.31,9.31,9.31h15.96v8.42
			c0,1.01-0.82,1.83-1.83,1.83H35.7c-0.45,0-0.89,0.18-1.21,0.5l-7.38,7.38v-6.17c0-0.94-0.77-1.71-1.71-1.71h-5.15
			c-1.01,0-1.83-0.82-1.83-1.83V17.11c0-1.01,0.82-1.83,1.83-1.83h32.77c0.94,0,1.7-0.76,1.7-1.7c0-0.96-0.76-1.72-1.7-1.72
			l-32.77,0c-2.9,0-5.26,2.36-5.26,5.26v40.01c0,2.9,2.36,5.26,5.26,5.26h3.44v8.59c0,0.69,0.41,1.31,1.06,1.58
			c0.63,0.26,1.38,0.11,1.86-0.37l9.8-9.8h50.64c2.9,0,5.26-2.36,5.26-5.26V48.7h27.72c5.13,0,9.31-4.17,9.31-9.31V10.02
			C129.33,4.89,125.15,0.71,120.02,0.71z M125.91,39.39c0,3.25-2.64,5.89-5.89,5.89h-47.1c-3.25,0-5.89-2.64-5.89-5.89V10.02
			c0-3.25,2.64-5.89,5.89-5.89h47.1c3.25,0,5.89,2.64,5.89,5.89V39.39z"/>
		<path class="st6" d="M106.24,23.22L88.91,13.22c-0.26-0.15-0.55-0.23-0.86-0.23s-0.6,0.08-0.86,0.23
			c-0.53,0.3-0.86,0.87-0.86,1.48v20.01c0,0.61,0.33,1.18,0.86,1.48c0.52,0.3,1.19,0.3,1.71,0l17.33-10.01
			c0.53-0.3,0.86-0.87,0.86-1.48C107.09,24.09,106.76,23.53,106.24,23.22L106.24,23.22z M89.76,31.75V17.66l12.2,7.04L89.76,31.75z"
			/>
		<path class="st6" d="M54.82,27.3H29.5c-0.94,0-1.71,0.77-1.71,1.71c0,0.94,0.77,1.71,1.71,1.71h25.32c0.94,0,1.71-0.77,1.71-1.71
			C56.53,28.07,55.77,27.3,54.82,27.3z"/>
		<path class="st6" d="M56.03,41.98c-0.32-0.32-0.76-0.5-1.21-0.5c-0.45,0-0.89,0.18-1.21,0.5c-0.32,0.32-0.5,0.76-0.5,1.21
			c0,0.45,0.18,0.89,0.5,1.21c0.63,0.63,1.79,0.63,2.42,0c0.32-0.32,0.5-0.76,0.5-1.21C56.53,42.74,56.35,42.3,56.03,41.98z"/>
		<path class="st6" d="M45.33,41.48H29.5c-0.94,0-1.71,0.77-1.71,1.71s0.77,1.71,1.71,1.71h15.82c0.94,0,1.71-0.77,1.71-1.71
			S46.27,41.48,45.33,41.48z"/>
	</g>
</g>
</svg>
