<?xml version="1.0" encoding="utf-8"?>
<!-- Generator: Adobe Illustrator 23.0.5, SVG Export Plug-In . SVG Version: 6.00 Build 0)  -->
<svg version="1.1" id="Layer_1" xmlns="http://www.w3.org/2000/svg" xmlns:xlink="http://www.w3.org/1999/xlink" x="0px" y="0px"
	 viewBox="0 0 130 130" style="enable-background:new 0 0 130 130;" xml:space="preserve">
<style type="text/css">
	.st0{fill:#FFFFFF;}
	.st1{fill:#FBA826;}
	.st2{fill:#E8E8E8;}
	.st3{fill:#E09721;}
	.st4{fill:#B4E5EA;}
	.st5{fill:#60B0C5;}
	.st6{fill:#203447;}
</style>
<g>
	<path class="st0" d="M121.09,122.34H9.03c-3.28,0-5.94-2.68-5.94-5.99V11.47c0-3.31,2.66-5.99,5.94-5.99h112.05
		c3.28,0,5.94,2.68,5.94,5.99v104.88C127.03,119.66,124.37,122.34,121.09,122.34z"/>
	<path class="st1" d="M3.1,28.93h123.93V12.65c0-3.26-2.66-5.91-5.94-5.91H9.03c-3.28,0-5.94,2.64-5.94,5.91V28.93z"/>
	<path class="st2" d="M120.26,6.65h-9.88c3.71,0,6.72,2.65,6.72,5.93v103.84c0,3.27-3.01,5.93-6.72,5.93h9.88
		c3.71,0,6.72-2.65,6.72-5.93V12.57C126.98,9.3,123.97,6.65,120.26,6.65z"/>
	<path class="st3" d="M119.86,6.65h-9.11c3.42,0,6.2,2.77,6.2,6.2v17.08h9.11V12.84C126.06,9.42,123.28,6.65,119.86,6.65z"/>
	<path class="st4" d="M82.6,93.04H66.53c-2.2,0-3.98-1.78-3.98-3.98V72.97c0-2.2,1.78-3.98,3.98-3.98H82.6
		c2.2,0,3.98,1.78,3.98,3.98v16.08C86.59,91.25,84.81,93.04,82.6,93.04z"/>
	<path class="st5" d="M82.73,68.99h-6.65c2.13,0,3.86,1.73,3.86,3.86v16.33c0,2.13-1.73,3.86-3.86,3.86h6.65
		c2.13,0,3.86-1.73,3.86-3.86V72.85C86.59,70.72,84.86,68.99,82.73,68.99z"/>
	<path class="st4" d="M107.19,61.43H91.11c-2.2,0-3.98-1.78-3.98-3.98V41.37c0-2.2,1.78-3.98,3.98-3.98h16.08
		c2.2,0,3.98,1.78,3.98,3.98v16.08C111.17,59.65,109.39,61.43,107.19,61.43z"/>
	<path class="st5" d="M107.31,37.38h-7.58c2.13,0,3.86,1.73,3.86,3.86v16.33c0,2.13-1.73,3.86-3.86,3.86h7.58
		c2.13,0,3.86-1.73,3.86-3.86V41.24C111.17,39.11,109.44,37.38,107.31,37.38z"/>
	<path class="st4" d="M40.72,61.56H24.64c-2.2,0-3.98-1.78-3.98-3.98V41.5c0-2.2,1.78-3.98,3.98-3.98h16.08
		c2.2,0,3.98,1.78,3.98,3.98v16.08C44.7,59.77,42.92,61.56,40.72,61.56z"/>
	<path class="st5" d="M40.84,37.51h-7.77c2.13,0,3.86,1.73,3.86,3.86V57.7c0,2.13-1.73,3.86-3.86,3.86h7.77
		c2.13,0,3.86-1.73,3.86-3.86V41.37C44.7,39.24,42.98,37.51,40.84,37.51z"/>
	<path class="st4" d="M38.46,114.37H22.38c-2.2,0-3.98-1.78-3.98-3.98V94.31c0-2.2,1.78-3.98,3.98-3.98h16.08
		c2.2,0,3.98,1.78,3.98,3.98v16.08C42.45,112.59,40.66,114.37,38.46,114.37z"/>
	<path class="st5" d="M38.59,90.33h-7.76c2.13,0,3.86,1.73,3.86,3.86v16.33c0,2.13-1.73,3.86-3.86,3.86h7.76
		c2.13,0,3.86-1.73,3.86-3.86V94.19C42.45,92.06,40.72,90.33,38.59,90.33z"/>
	<path class="st0" d="M49.54,49.61c0,2.54-2.06,4.59-4.59,4.59s-4.59-2.06-4.59-4.59s2.06-4.59,4.59-4.59S49.54,47.07,49.54,49.61z"
		/>
	<path class="st0" d="M37.52,61.63c0,2.54-2.06,4.59-4.59,4.59s-4.59-2.06-4.59-4.59c0-2.54,2.06-4.59,4.59-4.59
		S37.52,59.1,37.52,61.63z"/>
	<path class="st0" d="M47.69,102.33c0,2.54-2.06,4.59-4.59,4.59s-4.59-2.06-4.59-4.59c0-2.54,2.06-4.59,4.59-4.59
		S47.69,99.79,47.69,102.33z"/>
	<path class="st0" d="M66.19,80.13c0,2.54-2.06,4.59-4.59,4.59S57,82.67,57,80.13c0-2.54,2.06-4.59,4.59-4.59
		S66.19,77.59,66.19,80.13z"/>
	<path class="st0" d="M79.14,93.08c0,2.54-2.06,4.59-4.59,4.59c-2.54,0-4.59-2.06-4.59-4.59c0-2.54,2.06-4.59,4.59-4.59
		C77.08,88.48,79.14,90.54,79.14,93.08z"/>
	<path class="st0" d="M91.16,48.68c0,2.54-2.06,4.59-4.59,4.59c-2.54,0-4.59-2.06-4.59-4.59s2.06-4.59,4.59-4.59
		C89.11,44.09,91.16,46.15,91.16,48.68z"/>
	<g>
		<path class="st6" d="M17.53,11.17c-3.41,0-6.19,2.78-6.19,6.19c0,3.41,2.78,6.19,6.19,6.19c3.41,0,6.19-2.78,6.19-6.19
			C23.72,13.95,20.94,11.17,17.53,11.17z M17.53,20.02c-1.47,0-2.66-1.19-2.66-2.66c0-1.47,1.19-2.66,2.66-2.66
			c1.47,0,2.66,1.19,2.66,2.66C20.19,18.82,19,20.02,17.53,20.02z"/>
		<path class="st6" d="M32.5,11.17c-3.41,0-6.19,2.78-6.19,6.19c0,3.41,2.78,6.19,6.19,6.19s6.19-2.78,6.19-6.19
			C38.69,13.95,35.91,11.17,32.5,11.17z M32.5,20.02c-1.47,0-2.66-1.19-2.66-2.66c0-1.47,1.19-2.66,2.66-2.66
			c1.47,0,2.66,1.19,2.66,2.66C35.16,18.82,33.97,20.02,32.5,20.02z"/>
		<path class="st6" d="M53.66,17.36c0-3.41-2.78-6.19-6.19-6.19s-6.19,2.78-6.19,6.19c0,3.41,2.78,6.19,6.19,6.19
			S53.66,20.77,53.66,17.36z M47.48,20.02c-1.47,0-2.66-1.19-2.66-2.66c0-1.47,1.19-2.66,2.66-2.66c1.47,0,2.66,1.19,2.66,2.66
			C50.14,18.82,48.94,20.02,47.48,20.02z"/>
		<path class="st6" d="M115.8,17.36c0-0.97-0.79-1.76-1.76-1.76H68.27c-0.97,0-1.76,0.79-1.76,1.76s0.79,1.76,1.76,1.76h45.76
			C115.01,19.12,115.8,18.33,115.8,17.36z"/>
		<path class="st6" d="M121.14,4.39H8.55c-4.26,0-7.73,3.47-7.73,7.73v104.54c0,4.26,3.47,7.73,7.73,7.73h112.59
			c4.26,0,7.73-3.47,7.73-7.73V12.12C128.87,7.86,125.4,4.39,121.14,4.39z M125.34,26.8H21.95c-0.97,0-1.76,0.79-1.76,1.76
			s0.79,1.76,1.76,1.76h103.39v86.33c0,2.32-1.89,4.2-4.2,4.2H8.55c-2.32,0-4.2-1.89-4.2-4.2V30.33h10.59
			c0.97,0,1.76-0.79,1.76-1.76s-0.79-1.76-1.76-1.76H4.35V12.12c0-2.32,1.89-4.2,4.2-4.2h112.59c2.32,0,4.2,1.89,4.2,4.2V26.8z"/>
		<path class="st6" d="M24.83,63.46h2.36l0.03,0.08c0.6,1.89,2.09,3.38,3.98,3.98l0.08,0.03v7.76c0,3.9,3.17,7.07,7.07,7.07h17.78
			l0.03,0.08c0.6,1.89,2.09,3.38,3.98,3.98l0.08,0.03v2.49c0,3.15,2.56,5.7,5.7,5.7h2.63l0.02,0.08c0.53,1.83,1.91,3.34,3.69,4.02
			l0.12,0.05l-0.06,0.11c-0.58,1.16-1.75,1.88-3.04,1.88H49.13l-0.02-0.09c-0.47-2.11-2.05-3.83-4.12-4.49l-0.08-0.03v-2.36
			c0-3.22-2.62-5.83-5.83-5.83H22.65c-3.22,0-5.83,2.62-5.83,5.83v16.42c0,3.22,2.62,5.83,5.83,5.83h16.42
			c3.22,0,5.83-2.62,5.83-5.83v-2.36l0.08-0.03c1.72-0.55,3.1-1.81,3.8-3.48l0.03-0.07h20.47c3.21,0,5.98-2.18,6.74-5.31l0.02-0.07
			l0.07-0.02c2.02-0.57,3.64-2.18,4.22-4.2l0.02-0.08h2.25c3.15,0,5.7-2.56,5.7-5.7v-4.94c0-0.97-0.79-1.76-1.76-1.76
			c-0.97,0-1.76,0.79-1.76,1.76v4.94c0,1.2-0.98,2.18-2.18,2.18h-2.35l-0.03-0.08c-1.06-3.03-3.67-4.11-5.77-4.11c0,0,0,0,0,0
			c-2.64,0-4.91,1.61-5.78,4.11l-0.03,0.08h-2.73c-1.2,0-2.18-0.98-2.18-2.18v-2.49l0.08-0.03c0.39-0.13,0.76-0.28,1.12-0.49
			c0.01,0,0.02-0.01,0.03-0.02c0.73-0.42,3.11-2.03,3.11-5.32c0-2.67-1.72-5.01-4.27-5.83l-0.08-0.03v-2.49
			c0-1.2,0.98-2.18,2.18-2.18H82.6c1.2,0,2.18,0.98,2.18,2.18v4.94c0,0.97,0.79,1.76,1.76,1.76c0.97,0,1.76-0.79,1.76-1.76v-4.94
			c0-3.15-2.56-5.7-5.7-5.7H65.92c-3.15,0-5.7,2.56-5.7,5.7v2.49l-0.08,0.03c-1.89,0.6-3.38,2.09-3.98,3.98l-0.03,0.08H38.35
			c-1.95,0-3.54-1.59-3.54-3.54v-7.76l0.08-0.03c1.89-0.6,3.38-2.09,3.98-3.98l0.03-0.08h2.36c3.22,0,5.83-2.62,5.83-5.83v-2.36
			l0.08-0.03c1.9-0.6,3.39-2.09,3.99-3.99l0.03-0.08l0.08,0l29.43-0.11l0.03,0.08c0.6,1.89,2.09,3.38,3.98,3.98l0.08,0.03v2.36
			c0,3.22,2.62,5.83,5.83,5.83h16.42c3.22,0,5.83-2.62,5.83-5.83V41.08c0-3.22-2.62-5.83-5.83-5.83H90.61
			c-3.22,0-5.83,2.62-5.83,5.83v2.36l-0.08,0.03c-1.9,0.6-3.39,2.09-3.99,3.99l-0.03,0.08l-0.08,0l-29.43,0.11l-0.03-0.08
			c-0.6-1.89-2.09-3.38-3.98-3.98l-0.08-0.03V41.2c0-3.22-2.62-5.83-5.83-5.83H24.83c-3.22,0-5.83,2.62-5.83,5.83v16.42
			C18.99,60.84,21.61,63.46,24.83,63.46z M41.38,110.26c0,1.27-1.04,2.31-2.31,2.31H22.65c-1.27,0-2.31-1.03-2.31-2.31V93.84
			c0-1.27,1.03-2.31,2.31-2.31h16.42c1.27,0,2.31,1.03,2.31,2.31v2.36l-0.08,0.03c-2.59,0.83-4.26,3.11-4.26,5.81
			c0,2.72,1.67,5.02,4.26,5.84l0.08,0.03V110.26z M43.15,104.64c-1.43,0-2.58-1.16-2.58-2.58s1.16-2.58,2.58-2.58
			s2.58,1.16,2.58,2.58S44.57,104.64,43.15,104.64z M74.42,90.46c1.15,0,2.45,0.81,2.62,2.6l0,0.01c-0.01,1.42-1.17,2.57-2.58,2.57
			c-1.42,0-2.58-1.15-2.58-2.57C72.03,91.26,73.27,90.46,74.42,90.46z M60.3,78.65c0.57-0.49,1.33-0.71,2.08-0.59
			c1.25,0.19,2.19,1.29,2.19,2.56c0,1.43-1.16,2.58-2.58,2.58s-2.58-1.16-2.58-2.58C59.4,79.86,59.73,79.15,60.3,78.65z
			 M88.31,41.08c0-1.27,1.03-2.31,2.31-2.31h16.42c1.27,0,2.31,1.03,2.31,2.31V57.5c0,1.27-1.03,2.31-2.31,2.31H90.61
			c-1.27,0-2.31-1.03-2.31-2.31v-2.36l0.08-0.03c2.65-0.84,4.4-3.37,4.26-6.14c-0.13-2.53-1.84-4.74-4.26-5.51l-0.08-0.03V41.08z
			 M86.54,46.7c1.43,0,2.58,1.16,2.58,2.58s-1.16,2.58-2.58,2.58c-1.43,0-2.58-1.16-2.58-2.58S85.12,46.7,86.54,46.7z M33.04,64.28
			c-0.75,0-1.47-0.33-1.96-0.9c-0.49-0.57-0.71-1.33-0.59-2.08c0.19-1.25,1.29-2.19,2.56-2.19c1.43,0,2.58,1.16,2.58,2.58
			C35.62,63.12,34.46,64.28,33.04,64.28z M47.9,49.41c0,1.43-1.16,2.58-2.58,2.58s-2.58-1.16-2.58-2.58s1.16-2.58,2.58-2.58
			S47.9,47.99,47.9,49.41z M22.52,41.2c0-1.27,1.03-2.31,2.31-2.31h16.42c1.27,0,2.31,1.03,2.31,2.31v2.36l-0.08,0.03
			c-2.64,0.84-4.39,3.36-4.26,6.12l0,0.04c0.04,0.7,0.42,4.27,4.26,5.49l0.08,0.03v2.36c0,1.27-1.03,2.31-2.31,2.31h-2.36
			l-0.03-0.08c-0.96-2.98-3.98-4.76-7.04-4.15l-0.04,0.01c-0.58,0.12-3.54,0.89-4.58,4.14l-0.03,0.08h-2.36
			c-1.27,0-2.31-1.03-2.31-2.31V41.2z"/>
	</g>
</g>
</svg>
